<svg xmlns="http://www.w3.org/2000/svg"  viewBox="0 0 40 40" width="40px" height="40px"><path fill="#4788c7" d="M27.053,16.216l-3.105,0.436c0,0,0.47-4.186-4.699-4.186c-2.63,0-3.628,1.674-3.628,2.938 c0,1.543,1.345,2.272,5.546,3.228c4.2,0.957,6.245,2.615,6.245,5.545S25.387,30,19.927,30c-4.931,0-7.124-2.29-7.927-6.585 c1.717-0.254,3.232-0.488,3.232-0.488s-0.545,4.733,4.675,4.733c2.374,0,4.511-0.73,4.511-3.112c0-2.382-2.174-2.851-4.84-3.359 s-6.848-1.504-6.848-5.741c0-3.815,3.871-5.448,6.483-5.448C25.255,9.999,27.053,13.357,27.053,16.216z"/><path fill="#b6dcfe" d="M20,1.5C9.783,1.5,1.5,9.783,1.5,20S9.783,38.5,20,38.5S38.5,30.217,38.5,20S30.217,1.5,20,1.5z M20,35.5c-8.56,0-15.5-6.94-15.5-15.5S11.44,4.5,20,4.5S35.5,11.44,35.5,20S28.56,35.5,20,35.5z"/><path fill="#4788c7" d="M20,39C9.523,39,1,30.477,1,20S9.523,1,20,1s19,8.523,19,19S30.477,39,20,39z M20,2 C10.075,2,2,10.075,2,20c0,9.925,8.075,18,18,18c9.925,0,18-8.075,18-18C38,10.075,29.925,2,20,2z M20,36c-8.822,0-16-7.178-16-16 S11.178,4,20,4s16,7.178,16,16S28.822,36,20,36z M20,5C11.729,5,5,11.729,5,20c0,8.271,6.729,15,15,15c8.271,0,15-6.729,15-15 C35,11.729,28.271,5,20,5z"/></svg>